<?xml version="1.0" standalone="no"?>
<!DOCTYPE svg PUBLIC "-//W3C//DTD SVG 20010904//EN"
 "http://www.w3.org/TR/2001/REC-SVG-20010904/DTD/svg10.dtd">
<svg version="1.0" xmlns="http://www.w3.org/2000/svg"
 width="300.000000pt" height="300.000000pt" viewBox="0 0 300.000000 300.000000"
 preserveAspectRatio="xMidYMid meet">
<metadata>
Created by potrace 1.10, written by Peter Selinger 2001-2011
</metadata>
<g transform="translate(0.000000,300.000000) scale(0.100000,-0.100000)"
fill="#000000" stroke="none">
<path d="M1134 2151 c-245 -83 -373 -331 -299 -577 7 -23 34 -75 60 -114 129
-195 389 -247 585 -118 58 38 131 137 182 244 l39 85 27 -20 c36 -25 141 -51
205 -51 57 0 121 25 150 58 11 11 24 19 30 16 7 -2 23 20 36 49 48 101 27 243
-47 320 -34 36 -97 73 -139 82 -44 9 -145 -4 -136 -18 4 -6 0 -8 -11 -4 -9 4
-15 3 -12 -1 3 -5 -15 -18 -38 -30 -24 -11 -59 -34 -79 -51 -35 -31 -57 -39
-57 -21 0 12 90 79 108 80 6 0 12 5 12 10 0 6 7 10 15 10 8 0 15 5 15 10 0 6
-2 10 -5 10 -9 0 -78 -42 -110 -66 -32 -24 -60 -31 -67 -16 -7 17 -128 84
-194 107 -84 30 -193 32 -270 6z m249 -32 c82 -27 158 -71 233 -135 l62 -52
46 54 c55 63 51 73 -6 12 -21 -23 -41 -38 -45 -34 -11 10 59 74 87 80 37 6 81
32 72 41 -4 5 -1 5 6 1 7 -4 19 -2 27 4 10 8 37 11 75 8 225 -16 291 -359 87
-454 -87 -40 -191 -27 -291 36 -26 17 -49 30 -50 28 0 -2 -9 -18 -18 -36 -10
-19 -18 -39 -18 -46 0 -18 -96 -176 -128 -210 -80 -85 -236 -131 -359 -106
-170 35 -306 193 -320 371 -15 198 109 388 290 444 66 21 178 18 250 -6z"/>
<path d="M1181 2106 c2 -2 38 -6 79 -8 42 -3 64 -2 50 2 -25 8 -137 13 -129 6z"/>
<path d="M1111 2059 c-145 -46 -241 -220 -202 -366 12 -45 36 -75 87 -111 38
-26 88 -46 79 -32 -3 6 -12 10 -18 10 -24 0 -105 81 -121 121 -27 66 -23 138
10 200 40 75 108 140 169 162 94 33 245 15 344 -40 26 -14 90 -64 144 -112
143 -125 217 -181 241 -181 16 0 14 4 -12 17 -19 9 -77 55 -129 102 -148 134
-180 159 -257 196 -118 58 -224 69 -335 34z"/>
<path d="M1895 2029 c-15 -5 -8 -8 25 -9 57 -1 119 -29 160 -72 21 -21 29 -25
22 -12 -14 26 -68 73 -97 84 -34 13 -89 18 -110 9z"/>
<path d="M1165 1955 c-41 -15 -95 -65 -109 -100 -4 -12 7 -5 31 19 47 47 80
65 137 72 47 7 136 -16 155 -40 7 -8 24 -16 39 -20 15 -3 39 -17 54 -30 l27
-24 -37 -73 c-34 -67 -54 -96 -89 -134 -21 -22 -15 -27 11 -10 25 17 80 94
115 163 22 42 41 55 41 26 0 -27 -111 -185 -151 -214 -49 -35 -125 -54 -181
-45 -56 9 -76 20 -116 62 -19 19 -36 32 -40 29 -3 -4 18 -28 46 -55 61 -57
121 -77 199 -65 66 9 132 67 201 174 31 47 57 87 59 89 2 3 9 -1 15 -7 9 -9 7
-16 -5 -30 -9 -10 -17 -22 -17 -26 0 -14 -61 -89 -104 -130 -43 -40 -34 -39
20 1 32 24 105 121 118 158 7 19 9 19 32 -8 13 -15 24 -35 24 -43 0 -21 17
-17 23 6 6 24 -82 105 -202 187 -119 82 -203 101 -296 68z"/>
<path d="M1865 1946 c-41 -19 -109 -91 -102 -109 8 -21 106 -67 143 -67 68 0
108 66 80 134 -17 41 -12 44 24 16 14 -11 30 -20 36 -20 6 0 23 -11 39 -26 15
-14 29 -23 32 -21 8 9 -52 70 -82 82 -50 21 -136 27 -170 11z m92 -48 c6 -14
6 -36 1 -55 -8 -31 -11 -33 -52 -33 -58 0 -109 25 -97 48 32 60 128 85 148 40z"/>
<path d="M1735 1920 c-27 -29 -28 -31 -12 -47 16 -16 17 -16 17 0 0 10 7 31
15 47 19 38 16 38 -20 0z"/>
<path d="M1150 1889 c-34 -20 -34 -20 -5 -12 17 4 75 7 130 7 91 -1 97 0 70
12 -47 21 -153 17 -195 -7z"/>
<path d="M1480 1575 c-13 -14 -46 -36 -74 -50 -27 -14 -46 -25 -40 -25 13 -1
-68 -39 -83 -40 -6 0 -15 -5 -19 -11 -10 -16 28 -4 111 36 63 30 165 115 139
115 -6 0 -21 -11 -34 -25z"/>
<path d="M979 1543 c57 -84 163 -141 279 -150 55 -5 69 -2 125 25 34 17 76 46
92 63 26 29 27 31 5 16 -73 -51 -184 -81 -268 -73 -43 4 -136 43 -163 67 -8 8
-33 30 -54 49 l-38 35 22 -32z"/>
<path d="M2087 1635 c-31 -43 -88 -65 -169 -66 l-73 -2 58 -9 c42 -8 70 -7
102 2 43 12 115 67 115 89 0 18 -14 12 -33 -14z"/>
<path d="M797 1182 c-22 -24 -22 -159 0 -184 20 -22 66 -23 83 -3 16 19 37 19
55 1 10 -10 37 -14 85 -14 63 1 73 3 90 26 14 17 20 41 21 76 0 36 3 45 8 31
5 -11 6 -37 4 -59 -5 -48 17 -76 62 -76 35 0 65 26 65 56 0 11 14 33 30 49
l30 29 0 -51 c0 -36 5 -55 18 -66 23 -21 66 -22 86 -2 18 19 40 19 55 1 9 -11
32 -14 83 -13 60 2 73 5 89 26 l19 23 21 -26 c25 -32 77 -36 103 -7 14 15 16
29 11 59 -3 22 -2 43 3 46 16 10 41 -28 40 -62 -1 -37 23 -61 62 -61 40 0 63
24 62 62 -1 24 6 41 22 56 22 21 23 21 40 3 9 -11 18 -36 20 -56 4 -63 55 -91
99 -55 19 14 27 30 27 52 0 18 9 43 20 57 25 32 25 55 0 80 -27 27 -134 29
-162 3 -18 -16 -21 -16 -47 0 -37 22 -129 23 -159 1 -20 -14 -24 -14 -44 0
-30 22 -60 20 -88 -4 -23 -20 -24 -20 -44 -1 -31 28 -152 27 -183 -2 l-23 -20
-23 21 c-28 26 -49 28 -88 5 -26 -16 -29 -16 -47 0 -28 25 -123 23 -147 -2
-17 -20 -17 -20 -46 2 -25 18 -34 19 -58 10 -17 -6 -35 -7 -42 -2 -24 15 -52
10 -76 -13 l-23 -21 -23 21 c-28 26 -68 28 -90 4z m81 -30 c1 -5 -2 -13 -7
-17 -15 -9 -14 -92 1 -97 20 -7 -2 -28 -30 -28 -27 0 -27 0 -27 78 l-1 77 30
-1 c17 0 32 -6 34 -12z m146 -38 c33 -52 42 -51 27 3 -15 51 -15 50 20 50 29
0 30 -2 25 -30 -3 -16 -6 -51 -6 -78 0 -68 -25 -66 -67 4 l-32 52 -1 -37 c0
-21 5 -38 10 -38 6 0 10 -7 10 -15 0 -10 -10 -15 -27 -15 l-28 0 0 78 c0 74 1
78 20 74 12 -2 34 -24 49 -48z m266 24 c0 -18 -5 -28 -15 -28 -8 0 -15 5 -15
10 0 6 -9 10 -20 10 -11 0 -20 -7 -20 -15 0 -8 7 -15 15 -15 8 0 15 -7 15 -15
0 -8 -7 -15 -15 -15 -8 0 -15 -7 -15 -15 0 -8 5 -15 10 -15 6 0 10 -7 10 -15
0 -10 -11 -15 -35 -15 -24 0 -35 5 -35 15 0 8 5 15 10 15 6 0 10 20 10 45 0
25 -4 45 -10 45 -5 0 -10 8 -10 18 0 14 10 17 60 17 59 0 60 -1 60 -27z m138
14 c1 -5 -2 -13 -7 -17 -14 -8 -14 -95 -1 -95 6 0 10 -7 10 -15 0 -10 -10 -15
-32 -15 l-33 0 0 78 -1 77 30 -1 c17 0 32 -6 34 -12z m149 -41 c28 -46 28 -46
31 -17 2 16 -1 33 -7 39 -20 20 -11 34 20 34 29 0 30 -2 25 -30 -3 -16 -6 -51
-6 -78 0 -68 -25 -66 -67 4 l-32 52 -1 -37 c0 -21 5 -38 10 -38 6 0 10 -7 10
-15 0 -10 -10 -15 -27 -15 l-28 0 0 78 c-1 76 0 78 22 74 14 -3 33 -23 50 -51z
m213 37 c0 -10 -4 -18 -10 -18 -5 0 -10 -20 -10 -45 0 -25 5 -45 10 -45 6 0
10 -7 10 -15 0 -10 -11 -15 -35 -15 -24 0 -35 5 -35 15 0 8 5 15 10 15 6 0 10
20 10 45 0 25 -4 45 -10 45 -5 0 -10 8 -10 18 0 14 8 18 35 18 27 0 35 -4 35
-18z m200 -10 c0 -32 -16 -36 -36 -10 -12 15 -13 10 -14 -35 0 -28 5 -55 10
-58 17 -11 0 -25 -29 -25 l-29 0 5 68 c5 60 4 65 -9 48 -17 -21 -38 -14 -38
13 0 25 2 26 74 26 65 0 66 0 66 -27z m126 6 c-7 -19 4 -45 16 -38 5 3 7 17 4
30 -5 19 -2 24 13 24 11 0 26 3 35 6 27 10 19 -22 -14 -58 -29 -32 -40 -68
-20 -68 6 0 10 -7 10 -15 0 -10 -11 -15 -35 -15 -24 0 -35 5 -35 14 0 8 5 16
12 18 17 6 2 51 -28 81 -31 31 -26 45 16 39 21 -3 30 -9 26 -18z m-1196 -60
c0 -21 -4 -33 -10 -29 -5 3 -10 19 -10 36 0 16 5 29 10 29 6 0 10 -16 10 -36z
m550 -6 c0 -9 -4 -20 -10 -23 -6 -4 -10 9 -10 32 0 28 3 34 10 23 5 -8 10 -23
10 -32z m227 6 c-7 -51 -17 -54 -17 -6 0 24 5 42 11 42 6 0 9 -14 6 -36z"/>
</g>
</svg>
